<svg width="33" height="33" viewBox="0 0 33 33" fill="none" xmlns="http://www.w3.org/2000/svg">
<path d="M0.0749512 5.18396C0.0749512 2.42254 2.31353 0.18396 5.07495 0.18396H27.075C29.8364 0.18396 32.075 2.42254 32.075 5.18396V27.184C32.075 29.9454 29.8364 32.184 27.075 32.184H0.0749512V5.18396Z" fill="#003B95"/>
<path d="M13.0604 9.94759V21.584H11.6513V11.4249H11.5831L8.74223 13.3112V11.8794L11.6513 9.94759H13.0604ZM20.2025 21.743C19.3464 21.743 18.6172 21.5101 18.015 21.0442C17.4127 20.5745 16.9525 19.8946 16.6343 19.0044C16.3161 18.1105 16.157 17.0309 16.157 15.7658C16.157 14.5082 16.3161 13.4343 16.6343 12.5442C16.9562 11.6502 17.4184 10.9684 18.0206 10.4987C18.6267 10.0252 19.354 9.7885 20.2025 9.7885C21.0509 9.7885 21.7763 10.0252 22.3786 10.4987C22.9847 10.9684 23.4468 11.6502 23.765 12.5442C24.0869 13.4343 24.2479 14.5082 24.2479 15.7658C24.2479 17.0309 24.0888 18.1105 23.7706 19.0044C23.4525 19.8946 22.9922 20.5745 22.39 21.0442C21.7877 21.5101 21.0585 21.743 20.2025 21.743ZM20.2025 20.493C21.0509 20.493 21.71 20.084 22.1797 19.2658C22.6494 18.4476 22.8843 17.2809 22.8843 15.7658C22.8843 14.7582 22.7763 13.9002 22.5604 13.1919C22.3483 12.4836 22.0415 11.9438 21.64 11.5726C21.2422 11.2014 20.7631 11.0158 20.2025 11.0158C19.3615 11.0158 18.7043 11.4305 18.2309 12.2601C17.7574 13.0858 17.5206 14.2544 17.5206 15.7658C17.5206 16.7733 17.6267 17.6294 17.8388 18.334C18.0509 19.0385 18.3559 19.5745 18.7536 19.9419C19.1551 20.3093 19.6381 20.493 20.2025 20.493Z" fill="white"/>
</svg>
