<svg width="31" height="26" viewBox="0 0 31 26" fill="none" xmlns="http://www.w3.org/2000/svg">
<mask id="mask0_1_717" style="mask-type:luminance" maskUnits="userSpaceOnUse" x="2" y="0" width="26" height="20">
<path d="M27.575 0.18396H2.57495V19.116H27.575V0.18396Z" fill="white"/>
</mask>
<g mask="url(#mask0_1_717)">
<path d="M23.4541 17.0572L4.72505 19.1162C4.43424 19.1161 4.14965 19.032 3.90548 18.8741C3.6613 18.7161 3.46793 18.491 3.34859 18.2259C3.22925 17.9607 3.18902 17.6667 3.23274 17.3792C3.27646 17.0917 3.40227 16.8229 3.59505 16.6052C7.03305 12.6882 14.2141 4.17615 20.8681 4.17615C22.2464 4.1759 23.5963 4.56783 24.7601 5.30615C28.8781 7.89215 27.5971 12.5372 26.4171 15.1232C26.1578 15.6936 25.7414 16.1784 25.2167 16.5209C24.692 16.8634 24.0806 17.0494 23.4541 17.0572Z" fill="#FFBC00"/>
<path d="M20.8409 2.16796C13.7599 2.16796 6.75481 9.92596 2.81282 14.421C2.63462 14.1453 2.55278 13.8184 2.5801 13.4913C2.60742 13.1641 2.74236 12.8553 2.96382 12.613C6.40281 8.69596 13.5839 0.18396 20.2379 0.18396C21.6161 0.183712 22.966 0.575638 24.1299 1.31396C25.2064 1.96626 26.0497 2.94154 26.5399 4.10096C26.3167 3.92032 26.0831 3.75335 25.8399 3.60096C24.3415 2.66207 22.6081 2.16598 20.8399 2.16996" fill="#FFBC00"/>
</g>
</svg>
