<svg width="21" height="20" viewBox="0 0 21 20" fill="none" xmlns="http://www.w3.org/2000/svg">
<path d="M18.9233 9.9999C18.9238 10.2121 18.8694 10.4208 18.7653 10.6058C18.6613 10.7907 18.5112 10.9456 18.3295 11.0554L7.07328 17.9413C6.8835 18.0575 6.66614 18.121 6.44365 18.1251C6.22116 18.1292 6.0016 18.0738 5.80765 17.9647C5.61555 17.8573 5.45553 17.7007 5.34403 17.5109C5.23254 17.3212 5.1736 17.1051 5.17328 16.8851V3.11475C5.1736 2.89466 5.23254 2.67862 5.34403 2.48886C5.45553 2.2991 5.61555 2.14247 5.80765 2.03506C6.0016 1.92596 6.22116 1.87061 6.44365 1.87473C6.66614 1.87885 6.8835 1.94229 7.07328 2.0585L18.3295 8.94443C18.5112 9.05418 18.6613 9.20906 18.7653 9.39401C18.8694 9.57896 18.9238 9.78769 18.9233 9.9999Z" fill="#1E1E1E"/>
</svg>
