<svg width="21" height="20" viewBox="0 0 21 20" fill="none" xmlns="http://www.w3.org/2000/svg">
<path d="M18.0014 6.06717L8.00137 16.0672C7.94333 16.1253 7.8744 16.1714 7.79852 16.2028C7.72265 16.2343 7.64132 16.2505 7.55919 16.2505C7.47705 16.2505 7.39572 16.2343 7.31985 16.2028C7.24397 16.1714 7.17504 16.1253 7.117 16.0672L2.742 11.6922C2.62472 11.5749 2.55884 11.4158 2.55884 11.25C2.55884 11.0841 2.62472 10.9251 2.742 10.8078C2.85927 10.6905 3.01833 10.6246 3.18419 10.6246C3.35004 10.6246 3.5091 10.6905 3.62637 10.8078L7.55919 14.7414L17.117 5.18279C17.2343 5.06552 17.3933 4.99963 17.5592 4.99963C17.725 4.99963 17.8841 5.06552 18.0014 5.18279C18.1186 5.30007 18.1845 5.45913 18.1845 5.62498C18.1845 5.79083 18.1186 5.94989 18.0014 6.06717Z" fill="#1C54E3"/>
</svg>
