<svg width="155" height="155" viewBox="0 0 155 155" fill="none" xmlns="http://www.w3.org/2000/svg">
<path d="M74.7277 78.5794C74.5133 78.0415 74.4612 77.4525 74.578 76.8854C74.6948 76.3182 74.9752 75.7977 75.3847 75.3882C75.7941 74.9788 76.3146 74.6983 76.8818 74.5815C77.449 74.4648 78.0379 74.5168 78.5758 74.7312L132.105 95.5482C132.679 95.7724 133.169 96.1694 133.508 96.6842C133.846 97.199 134.016 97.8063 133.995 98.4221C133.973 99.0378 133.761 99.6317 133.387 100.122C133.014 100.612 132.497 100.973 131.909 101.157L111.425 107.509C110.501 107.795 109.66 108.302 108.976 108.986C108.292 109.67 107.785 110.51 107.499 111.434L101.153 131.912C100.97 132.501 100.608 133.017 100.118 133.391C99.6282 133.765 99.0343 133.977 98.4185 133.998C97.8027 134.02 97.1955 133.85 96.6807 133.511C96.1658 133.173 95.7689 132.683 95.5446 132.109L74.7277 78.5794Z" stroke="#3D3D3F" stroke-width="8" stroke-linecap="round" stroke-linejoin="round"/>
<path d="M128.059 68.5816V32.8954C128.059 29.7405 126.805 26.7149 124.574 24.4841C122.344 22.2533 119.318 21 116.163 21H32.8954C29.7405 21 26.7149 22.2533 24.4841 24.4841C22.2533 26.7149 21 29.7405 21 32.8954V116.163C21 119.318 22.2533 122.344 24.4841 124.574C26.7149 126.805 29.7405 128.059 32.8954 128.059H68.5816" stroke="#3D3D3F" stroke-width="8" stroke-linecap="round" stroke-linejoin="round"/>
</svg>
