<svg width="49" height="23" viewBox="0 0 49 23" fill="none" xmlns="http://www.w3.org/2000/svg">
<rect x="0.970703" width="48.03" height="22.79" rx="11.395" fill="#1C54E3"/>
<path d="M7.0407 13.466V11.884H9.9667V13.466H7.0407ZM10.3132 16L14.7652 11.352C15.0172 11.0813 15.2319 10.8293 15.4092 10.596C15.5865 10.3627 15.7219 10.1293 15.8152 9.896C15.9085 9.66267 15.9552 9.42 15.9552 9.168C15.9552 8.99067 15.9225 8.818 15.8572 8.65C15.7919 8.482 15.6939 8.33267 15.5632 8.202C15.4325 8.07133 15.2739 7.96867 15.0872 7.894C14.9005 7.81 14.6859 7.768 14.4432 7.768C14.0979 7.768 13.7992 7.852 13.5472 8.02C13.3045 8.17867 13.1132 8.40733 12.9732 8.706C12.8425 9.00467 12.7772 9.35 12.7772 9.742H10.8172C10.8172 9.042 10.9572 8.412 11.2372 7.852C11.5172 7.292 11.9279 6.84867 12.4692 6.522C13.0199 6.186 13.6919 6.018 14.4852 6.018C15.0732 6.018 15.5865 6.11133 16.0252 6.298C16.4732 6.47533 16.8419 6.71333 17.1312 7.012C17.4299 7.30133 17.6492 7.62333 17.7892 7.978C17.9385 8.33267 18.0132 8.68733 18.0132 9.042C18.0132 9.56467 17.8872 10.0547 17.6352 10.512C17.3832 10.9693 17.0519 11.3847 16.6412 11.758L14.0932 14.166H18.1952V16H10.3132ZM21.3439 11.1C21.3439 11.5947 21.3906 12.0473 21.4839 12.458C21.5772 12.8593 21.7126 13.2093 21.8899 13.508C22.0672 13.7973 22.2772 14.0213 22.5199 14.18C22.7626 14.3387 23.0332 14.418 23.3319 14.418C23.6399 14.418 23.9152 14.3387 24.1579 14.18C24.4006 14.0213 24.6106 13.7973 24.7879 13.508C24.9652 13.2093 25.1006 12.8593 25.1939 12.458C25.2872 12.0473 25.3339 11.5947 25.3339 11.1C25.3339 10.6053 25.2872 10.1573 25.1939 9.756C25.1006 9.34533 24.9652 8.99533 24.7879 8.706C24.6106 8.40733 24.4006 8.17867 24.1579 8.02C23.9152 7.86133 23.6399 7.782 23.3319 7.782C23.0332 7.782 22.7626 7.86133 22.5199 8.02C22.2772 8.17867 22.0672 8.40733 21.8899 8.706C21.7126 8.99533 21.5772 9.34533 21.4839 9.756C21.3906 10.1573 21.3439 10.6053 21.3439 11.1ZM19.3979 11.1C19.3979 10.064 19.5612 9.168 19.8879 8.412C20.2239 7.656 20.6859 7.07267 21.2739 6.662C21.8712 6.242 22.5572 6.032 23.3319 6.032C24.1346 6.032 24.8299 6.242 25.4179 6.662C26.0059 7.07267 26.4632 7.656 26.7899 8.412C27.1166 9.168 27.2799 10.064 27.2799 11.1C27.2799 12.136 27.1166 13.032 26.7899 13.788C26.4632 14.544 26.0059 15.132 25.4179 15.552C24.8299 15.9627 24.1346 16.168 23.3319 16.168C22.5572 16.168 21.8712 15.9627 21.2739 15.552C20.6859 15.132 20.2239 14.544 19.8879 13.788C19.5612 13.032 19.3979 12.136 19.3979 11.1ZM28.198 8.454C28.198 7.98733 28.3053 7.56733 28.52 7.194C28.744 6.82067 29.0473 6.52667 29.43 6.312C29.8127 6.088 30.242 5.976 30.718 5.976C31.2033 5.976 31.6327 6.088 32.006 6.312C32.3887 6.52667 32.6873 6.82067 32.902 7.194C33.1167 7.56733 33.224 7.98733 33.224 8.454C33.224 8.902 33.1167 9.31733 32.902 9.7C32.6873 10.0733 32.3887 10.372 32.006 10.596C31.6327 10.82 31.2033 10.932 30.718 10.932C30.242 10.932 29.8127 10.82 29.43 10.596C29.0473 10.372 28.744 10.0733 28.52 9.7C28.3053 9.31733 28.198 8.902 28.198 8.454ZM29.71 8.454C29.71 8.64067 29.752 8.818 29.836 8.986C29.92 9.14467 30.0367 9.27067 30.186 9.364C30.3353 9.45733 30.5127 9.504 30.718 9.504C30.9233 9.504 31.096 9.45733 31.236 9.364C31.3853 9.27067 31.502 9.14467 31.586 8.986C31.67 8.818 31.712 8.64067 31.712 8.454C31.712 8.258 31.67 8.08067 31.586 7.922C31.502 7.76333 31.3853 7.63733 31.236 7.544C31.096 7.44133 30.9233 7.39 30.718 7.39C30.5127 7.39 30.3353 7.44133 30.186 7.544C30.0367 7.63733 29.92 7.76333 29.836 7.922C29.752 8.08067 29.71 8.258 29.71 8.454ZM34.568 13.746C34.568 13.2887 34.6753 12.8733 34.89 12.5C35.114 12.1173 35.4173 11.8187 35.8 11.604C36.1827 11.38 36.612 11.268 37.088 11.268C37.5733 11.268 38.0027 11.38 38.376 11.604C38.7587 11.8187 39.0573 12.1173 39.272 12.5C39.4867 12.8733 39.594 13.2887 39.594 13.746C39.594 14.2033 39.4867 14.6187 39.272 14.992C39.0573 15.3653 38.7587 15.664 38.376 15.888C38.0027 16.112 37.5733 16.224 37.088 16.224C36.612 16.224 36.1827 16.112 35.8 15.888C35.4173 15.664 35.114 15.3653 34.89 14.992C34.6753 14.6187 34.568 14.2033 34.568 13.746ZM36.08 13.746C36.08 13.9327 36.122 14.11 36.206 14.278C36.29 14.4367 36.4067 14.5627 36.556 14.656C36.7053 14.7493 36.8827 14.796 37.088 14.796C37.2933 14.796 37.466 14.7493 37.606 14.656C37.7553 14.5627 37.872 14.4367 37.956 14.278C38.04 14.11 38.082 13.9327 38.082 13.746C38.082 13.55 38.04 13.3727 37.956 13.214C37.872 13.0553 37.7553 12.9293 37.606 12.836C37.466 12.7427 37.2933 12.696 37.088 12.696C36.8827 12.696 36.7053 12.7427 36.556 12.836C36.4067 12.9293 36.29 13.0553 36.206 13.214C36.122 13.3727 36.08 13.55 36.08 13.746ZM36.556 6.2H38.39L31.25 16H29.416L36.556 6.2Z" fill="#101010"/>
</svg>
