<svg width="49" height="23" viewBox="0 0 49 23" fill="none" xmlns="http://www.w3.org/2000/svg">
<rect x="0.970703" width="48.03" height="22.79" rx="11.395" fill="#1C54E3"/>
<path d="M7.0407 13.466V11.884H9.9667V13.466H7.0407ZM13.7852 11.226V10.26C14.0745 10.26 14.3312 10.2227 14.5552 10.148C14.7885 10.0733 14.9845 9.97067 15.1432 9.84C15.3019 9.7 15.4232 9.546 15.5072 9.378C15.6005 9.20067 15.6472 9.01867 15.6472 8.832C15.6472 8.59867 15.6005 8.39333 15.5072 8.216C15.4139 8.03867 15.2785 7.90333 15.1012 7.81C14.9239 7.71667 14.6952 7.67 14.4152 7.67C14.0232 7.67 13.6919 7.79133 13.4212 8.034C13.1599 8.26733 13.0292 8.566 13.0292 8.93H11.1672C11.1672 8.37 11.3025 7.87533 11.5732 7.446C11.8532 7.00733 12.2359 6.662 12.7212 6.41C13.2065 6.158 13.7712 6.032 14.4152 6.032C15.0965 6.032 15.6752 6.15333 16.1512 6.396C16.6365 6.63867 17.0052 6.96067 17.2572 7.362C17.5092 7.76333 17.6352 8.21133 17.6352 8.706C17.6352 9.238 17.4672 9.69533 17.1312 10.078C16.7952 10.4513 16.3379 10.736 15.7592 10.932C15.1805 11.128 14.5225 11.226 13.7852 11.226ZM14.3312 16.196C13.7712 16.196 13.2719 16.112 12.8332 15.944C12.3945 15.776 12.0212 15.5473 11.7132 15.258C11.4052 14.9593 11.1672 14.6233 10.9992 14.25C10.8312 13.8673 10.7472 13.466 10.7472 13.046H12.7352C12.7352 13.3633 12.8099 13.634 12.9592 13.858C13.1085 14.082 13.3092 14.2547 13.5612 14.376C13.8132 14.488 14.0885 14.544 14.3872 14.544C14.6952 14.544 14.9612 14.4927 15.1852 14.39C15.4185 14.278 15.6005 14.1193 15.7312 13.914C15.8619 13.7087 15.9272 13.452 15.9272 13.144C15.9272 12.92 15.8805 12.7147 15.7872 12.528C15.6939 12.332 15.5539 12.1687 15.3672 12.038C15.1899 11.9073 14.9659 11.8093 14.6952 11.744C14.4339 11.6693 14.1305 11.632 13.7852 11.632V10.568C14.3825 10.568 14.9285 10.6193 15.4232 10.722C15.9272 10.8247 16.3659 10.9927 16.7392 11.226C17.1125 11.45 17.4019 11.7393 17.6072 12.094C17.8125 12.4393 17.9152 12.8593 17.9152 13.354C17.9152 13.914 17.7659 14.4087 17.4672 14.838C17.1779 15.2673 16.7625 15.6033 16.2212 15.846C15.6892 16.0793 15.0592 16.196 14.3312 16.196ZM20.8927 11.1C20.8927 11.5947 20.9394 12.0473 21.0327 12.458C21.1261 12.8593 21.2614 13.2093 21.4387 13.508C21.6161 13.7973 21.8261 14.0213 22.0687 14.18C22.3114 14.3387 22.5821 14.418 22.8807 14.418C23.1887 14.418 23.4641 14.3387 23.7067 14.18C23.9494 14.0213 24.1594 13.7973 24.3367 13.508C24.5141 13.2093 24.6494 12.8593 24.7427 12.458C24.8361 12.0473 24.8827 11.5947 24.8827 11.1C24.8827 10.6053 24.8361 10.1573 24.7427 9.756C24.6494 9.34533 24.5141 8.99533 24.3367 8.706C24.1594 8.40733 23.9494 8.17867 23.7067 8.02C23.4641 7.86133 23.1887 7.782 22.8807 7.782C22.5821 7.782 22.3114 7.86133 22.0687 8.02C21.8261 8.17867 21.6161 8.40733 21.4387 8.706C21.2614 8.99533 21.1261 9.34533 21.0327 9.756C20.9394 10.1573 20.8927 10.6053 20.8927 11.1ZM18.9467 11.1C18.9467 10.064 19.1101 9.168 19.4367 8.412C19.7727 7.656 20.2347 7.07267 20.8227 6.662C21.4201 6.242 22.1061 6.032 22.8807 6.032C23.6834 6.032 24.3787 6.242 24.9667 6.662C25.5547 7.07267 26.0121 7.656 26.3387 8.412C26.6654 9.168 26.8287 10.064 26.8287 11.1C26.8287 12.136 26.6654 13.032 26.3387 13.788C26.0121 14.544 25.5547 15.132 24.9667 15.552C24.3787 15.9627 23.6834 16.168 22.8807 16.168C22.1061 16.168 21.4201 15.9627 20.8227 15.552C20.2347 15.132 19.7727 14.544 19.4367 13.788C19.1101 13.032 18.9467 12.136 18.9467 11.1ZM27.7468 8.454C27.7468 7.98733 27.8541 7.56733 28.0688 7.194C28.2928 6.82067 28.5961 6.52667 28.9788 6.312C29.3615 6.088 29.7908 5.976 30.2668 5.976C30.7521 5.976 31.1815 6.088 31.5548 6.312C31.9375 6.52667 32.2361 6.82067 32.4508 7.194C32.6655 7.56733 32.7728 7.98733 32.7728 8.454C32.7728 8.902 32.6655 9.31733 32.4508 9.7C32.2361 10.0733 31.9375 10.372 31.5548 10.596C31.1815 10.82 30.7521 10.932 30.2668 10.932C29.7908 10.932 29.3615 10.82 28.9788 10.596C28.5961 10.372 28.2928 10.0733 28.0688 9.7C27.8541 9.31733 27.7468 8.902 27.7468 8.454ZM29.2588 8.454C29.2588 8.64067 29.3008 8.818 29.3848 8.986C29.4688 9.14467 29.5855 9.27067 29.7348 9.364C29.8841 9.45733 30.0615 9.504 30.2668 9.504C30.4721 9.504 30.6448 9.45733 30.7848 9.364C30.9341 9.27067 31.0508 9.14467 31.1348 8.986C31.2188 8.818 31.2608 8.64067 31.2608 8.454C31.2608 8.258 31.2188 8.08067 31.1348 7.922C31.0508 7.76333 30.9341 7.63733 30.7848 7.544C30.6448 7.44133 30.4721 7.39 30.2668 7.39C30.0615 7.39 29.8841 7.44133 29.7348 7.544C29.5855 7.63733 29.4688 7.76333 29.3848 7.922C29.3008 8.08067 29.2588 8.258 29.2588 8.454ZM34.1168 13.746C34.1168 13.2887 34.2241 12.8733 34.4388 12.5C34.6628 12.1173 34.9661 11.8187 35.3488 11.604C35.7315 11.38 36.1608 11.268 36.6368 11.268C37.1221 11.268 37.5515 11.38 37.9248 11.604C38.3075 11.8187 38.6061 12.1173 38.8208 12.5C39.0355 12.8733 39.1428 13.2887 39.1428 13.746C39.1428 14.2033 39.0355 14.6187 38.8208 14.992C38.6061 15.3653 38.3075 15.664 37.9248 15.888C37.5515 16.112 37.1221 16.224 36.6368 16.224C36.1608 16.224 35.7315 16.112 35.3488 15.888C34.9661 15.664 34.6628 15.3653 34.4388 14.992C34.2241 14.6187 34.1168 14.2033 34.1168 13.746ZM35.6288 13.746C35.6288 13.9327 35.6708 14.11 35.7548 14.278C35.8388 14.4367 35.9555 14.5627 36.1048 14.656C36.2541 14.7493 36.4315 14.796 36.6368 14.796C36.8421 14.796 37.0148 14.7493 37.1548 14.656C37.3041 14.5627 37.4208 14.4367 37.5048 14.278C37.5888 14.11 37.6308 13.9327 37.6308 13.746C37.6308 13.55 37.5888 13.3727 37.5048 13.214C37.4208 13.0553 37.3041 12.9293 37.1548 12.836C37.0148 12.7427 36.8421 12.696 36.6368 12.696C36.4315 12.696 36.2541 12.7427 36.1048 12.836C35.9555 12.9293 35.8388 13.0553 35.7548 13.214C35.6708 13.3727 35.6288 13.55 35.6288 13.746ZM36.1048 6.2H37.9388L30.7988 16H28.9648L36.1048 6.2Z" fill="#101010"/>
</svg>
