<svg width="49" height="23" viewBox="0 0 49 23" fill="none" xmlns="http://www.w3.org/2000/svg">
<rect x="0.970703" width="48.03" height="22.79" rx="11.395" fill="#1C54E3"/>
<path d="M7.07 13.466V11.884H9.996V13.466H7.07ZM11.0565 8.748V6.942L15.3545 6.032V16H13.4085V8.132L11.0565 8.748ZM25.0595 12.836C25.0595 13.4147 24.9521 13.914 24.7375 14.334C24.5228 14.754 24.2335 15.0993 23.8695 15.37C23.5055 15.6407 23.0995 15.8413 22.6515 15.972C22.2035 16.1027 21.7415 16.168 21.2655 16.168C20.6681 16.168 20.1315 16.098 19.6555 15.958C19.1888 15.818 18.7781 15.636 18.4235 15.412C18.0688 15.1787 17.7561 14.9267 17.4855 14.656L18.4235 13.102C18.6568 13.3353 18.9088 13.5453 19.1795 13.732C19.4595 13.9187 19.7488 14.068 20.0475 14.18C20.3461 14.2827 20.6308 14.334 20.9015 14.334C21.3215 14.334 21.6761 14.2687 21.9655 14.138C22.2641 14.0073 22.4928 13.8207 22.6515 13.578C22.8101 13.326 22.8895 13.018 22.8895 12.654C22.8895 12.2993 22.7961 12.0007 22.6095 11.758C22.4321 11.5153 22.1895 11.3333 21.8815 11.212C21.5828 11.0813 21.2561 11.016 20.9015 11.016C20.6401 11.016 20.3648 11.0393 20.0755 11.086C19.7861 11.1233 19.4875 11.1933 19.1795 11.296C18.8808 11.3893 18.5635 11.5293 18.2275 11.716L19.5715 6.2H24.9055V7.936H21.0555L20.4675 9.952C20.7101 9.82133 20.9668 9.73267 21.2375 9.686C21.5175 9.63 21.8021 9.602 22.0915 9.602C22.6235 9.602 23.1135 9.73267 23.5615 9.994C24.0095 10.2553 24.3688 10.6287 24.6395 11.114C24.9195 11.59 25.0595 12.164 25.0595 12.836ZM25.9851 8.454C25.9851 7.98733 26.0924 7.56733 26.3071 7.194C26.5311 6.82067 26.8344 6.52667 27.2171 6.312C27.5998 6.088 28.0291 5.976 28.5051 5.976C28.9904 5.976 29.4198 6.088 29.7931 6.312C30.1758 6.52667 30.4744 6.82067 30.6891 7.194C30.9038 7.56733 31.0111 7.98733 31.0111 8.454C31.0111 8.902 30.9038 9.31733 30.6891 9.7C30.4744 10.0733 30.1758 10.372 29.7931 10.596C29.4198 10.82 28.9904 10.932 28.5051 10.932C28.0291 10.932 27.5998 10.82 27.2171 10.596C26.8344 10.372 26.5311 10.0733 26.3071 9.7C26.0924 9.31733 25.9851 8.902 25.9851 8.454ZM27.4971 8.454C27.4971 8.64067 27.5391 8.818 27.6231 8.986C27.7071 9.14467 27.8238 9.27067 27.9731 9.364C28.1224 9.45733 28.2998 9.504 28.5051 9.504C28.7104 9.504 28.8831 9.45733 29.0231 9.364C29.1724 9.27067 29.2891 9.14467 29.3731 8.986C29.4571 8.818 29.4991 8.64067 29.4991 8.454C29.4991 8.258 29.4571 8.08067 29.3731 7.922C29.2891 7.76333 29.1724 7.63733 29.0231 7.544C28.8831 7.44133 28.7104 7.39 28.5051 7.39C28.2998 7.39 28.1224 7.44133 27.9731 7.544C27.8238 7.63733 27.7071 7.76333 27.6231 7.922C27.5391 8.08067 27.4971 8.258 27.4971 8.454ZM32.3551 13.746C32.3551 13.2887 32.4624 12.8733 32.6771 12.5C32.9011 12.1173 33.2044 11.8187 33.5871 11.604C33.9698 11.38 34.3991 11.268 34.8751 11.268C35.3604 11.268 35.7898 11.38 36.1631 11.604C36.5458 11.8187 36.8444 12.1173 37.0591 12.5C37.2738 12.8733 37.3811 13.2887 37.3811 13.746C37.3811 14.2033 37.2738 14.6187 37.0591 14.992C36.8444 15.3653 36.5458 15.664 36.1631 15.888C35.7898 16.112 35.3604 16.224 34.8751 16.224C34.3991 16.224 33.9698 16.112 33.5871 15.888C33.2044 15.664 32.9011 15.3653 32.6771 14.992C32.4624 14.6187 32.3551 14.2033 32.3551 13.746ZM33.8671 13.746C33.8671 13.9327 33.9091 14.11 33.9931 14.278C34.0771 14.4367 34.1938 14.5627 34.3431 14.656C34.4924 14.7493 34.6698 14.796 34.8751 14.796C35.0804 14.796 35.2531 14.7493 35.3931 14.656C35.5424 14.5627 35.6591 14.4367 35.7431 14.278C35.8271 14.11 35.8691 13.9327 35.8691 13.746C35.8691 13.55 35.8271 13.3727 35.7431 13.214C35.6591 13.0553 35.5424 12.9293 35.3931 12.836C35.2531 12.7427 35.0804 12.696 34.8751 12.696C34.6698 12.696 34.4924 12.7427 34.3431 12.836C34.1938 12.9293 34.0771 13.0553 33.9931 13.214C33.9091 13.3727 33.8671 13.55 33.8671 13.746ZM34.3431 6.2H36.1771L29.0371 16H27.2031L34.3431 6.2Z" fill="#101010"/>
</svg>
