<svg width="52" height="52" viewBox="0 0 52 52" fill="none" xmlns="http://www.w3.org/2000/svg">
<path d="M25.9455 0.114922C20.65 0.114922 16.3537 4.41185 16.3537 9.70807V25.6967C16.3537 30.9929 20.65 35.2898 25.9455 35.2898C31.241 35.2898 35.5373 30.9929 35.5373 25.6967V9.70807C35.5373 4.41185 31.241 0.114922 25.9455 0.114922ZM13.1564 21.6995C13.1564 20.3705 12.0873 19.3012 10.7585 19.3012C9.42962 19.3012 8.36053 20.3705 8.36053 21.6995V25.6967C8.36053 34.6003 14.9749 41.955 23.5475 43.1242V46.4818H18.7516C17.4228 46.4818 16.3537 47.551 16.3537 48.8801C16.3537 50.2091 17.4228 51.2784 18.7516 51.2784H25.9455H33.1393C34.4682 51.2784 35.5373 50.2091 35.5373 48.8801C35.5373 47.551 34.4682 46.4818 33.1393 46.4818H28.3434V43.1242C36.9161 41.955 43.5304 34.6003 43.5304 25.6967V21.6995C43.5304 20.3705 42.4614 19.3012 41.1325 19.3012C39.8036 19.3012 38.7346 20.3705 38.7346 21.6995V25.6967C38.7346 32.7616 33.0094 38.4875 25.9455 38.4875C18.8815 38.4875 13.1564 32.7616 13.1564 25.6967V21.6995Z" fill="white"/>
</svg>
