<svg width="138" height="138" viewBox="0 0 138 138" fill="none" xmlns="http://www.w3.org/2000/svg">
<g clip-path="url(#clip0_1_294)">
<path d="M8.625 69C8.625 72.0996 8.96191 75.1543 9.63574 78.1641C10.3096 81.1738 11.2979 84.0938 12.6006 86.9238C13.9033 89.7539 15.4756 92.4043 17.3174 94.875C19.1592 97.3457 21.293 99.5918 23.7188 101.613L17.5869 107.745C14.8018 105.274 12.3311 102.579 10.1748 99.6592C8.01855 96.7393 6.17676 93.6172 4.64941 90.293C3.12207 86.9688 1.97656 83.5322 1.21289 79.9834C0.449219 76.4346 0.0449219 72.7734 0 69C0 64.2383 0.606445 59.6562 1.81934 55.2539C3.03223 50.8516 4.78418 46.7412 7.0752 42.9229C9.36621 39.1045 12.0615 35.6006 15.1611 32.4111C18.2607 29.2217 21.7422 26.5264 25.6055 24.3252C29.4688 22.124 33.6016 20.3945 38.0039 19.1367C42.4062 17.8789 46.9883 17.25 51.75 17.25H95.2793L84.2959 6.2666L90.3604 0.202148L111.721 21.5625L90.3604 42.9229L84.2959 36.8584L95.2793 25.875H51.75C47.7969 25.875 43.9785 26.3916 40.2949 27.4248C36.6113 28.458 33.1748 29.8955 29.9854 31.7373C26.7959 33.5791 23.8984 35.8252 21.293 38.4756C18.6875 41.126 16.4414 44.0459 14.5547 47.2354C12.668 50.4248 11.208 53.8613 10.1748 57.5449C9.1416 61.2285 8.625 65.0469 8.625 69ZM120.413 30.3223C123.198 32.748 125.669 35.4209 127.825 38.3408C129.981 41.2607 131.823 44.3828 133.351 47.707C134.878 51.0312 136.023 54.4902 136.787 58.084C137.551 61.6777 137.955 65.3164 138 69C138 73.7617 137.394 78.3438 136.181 82.7461C134.968 87.1484 133.216 91.2588 130.925 95.0771C128.634 98.8955 125.938 102.399 122.839 105.589C119.739 108.778 116.258 111.474 112.395 113.675C108.531 115.876 104.398 117.605 99.9961 118.863C95.5938 120.121 91.0117 120.75 86.25 120.75H42.7207L53.7041 131.733L47.6396 137.798L26.2793 116.438L47.6396 95.0771L53.7041 101.142L42.7207 112.125H86.25C90.2031 112.125 94.0215 111.608 97.7051 110.575C101.389 109.542 104.825 108.104 108.015 106.263C111.204 104.421 114.102 102.175 116.707 99.5244C119.312 96.874 121.559 93.9541 123.445 90.7646C125.332 87.5752 126.792 84.1387 127.825 80.4551C128.858 76.7715 129.375 72.9531 129.375 69C129.375 65.8555 129.038 62.7783 128.364 59.7686C127.69 56.7588 126.725 53.8389 125.467 51.0088C124.209 48.1787 122.637 45.5508 120.75 43.125C118.863 40.6992 116.729 38.4307 114.349 36.3193L120.413 30.3223ZM77.625 94.875H69V55.2539C67.6973 56.1973 66.3271 56.9609 64.8896 57.5449C63.4521 58.1289 61.9473 58.6455 60.375 59.0947V50.2676C62.8906 49.4141 65.2715 48.4033 67.5176 47.2354C69.7637 46.0674 71.9873 44.6973 74.1885 43.125H77.625V94.875Z" fill="#3D3D3F"/>
</g>
<defs>
<clipPath id="clip0_1_294">
<rect width="138" height="138" fill="white"/>
</clipPath>
</defs>
</svg>
