<svg width="22" height="22" viewBox="0 0 22 22" fill="none" xmlns="http://www.w3.org/2000/svg">
<path d="M18.9827 11.5062L13.0544 17.4345C12.9308 17.5581 12.7632 17.6275 12.5884 17.6275C12.4136 17.6275 12.2459 17.5581 12.1223 17.4345C11.9987 17.3109 11.9293 17.1432 11.9293 16.9684C11.9293 16.7936 11.9987 16.626 12.1223 16.5024L16.9267 11.6988H4.02525C3.85055 11.6988 3.68301 11.6294 3.55948 11.5059C3.43595 11.3824 3.36655 11.2148 3.36655 11.0401C3.36655 10.8654 3.43595 10.6979 3.55948 10.5744C3.68301 10.4508 3.85055 10.3814 4.02525 10.3814H16.9267L12.1223 5.57786C11.9987 5.45426 11.9293 5.28662 11.9293 5.11183C11.9293 4.93703 11.9987 4.76939 12.1223 4.6458C12.2459 4.5222 12.4136 4.45276 12.5884 4.45276C12.7632 4.45276 12.9308 4.5222 13.0544 4.6458L18.9827 10.5741C19.0439 10.6353 19.0925 10.7079 19.1257 10.7879C19.1588 10.8679 19.1759 10.9536 19.1759 11.0401C19.1759 11.1267 19.1588 11.2124 19.1257 11.2924C19.0925 11.3723 19.0439 11.445 18.9827 11.5062Z" fill="#1C54E3"/>
</svg>
