<svg width="21" height="21" viewBox="0 0 21 21" fill="none" xmlns="http://www.w3.org/2000/svg">
<path d="M18.825 10.804C18.825 15.6365 14.9075 19.554 10.075 19.554C5.24245 19.554 1.32495 15.6365 1.32495 10.804C1.32495 5.97146 5.24245 2.05396 10.075 2.05396C14.9075 2.05396 18.825 5.97146 18.825 10.804ZM20.075 10.804C20.075 5.28146 15.5975 0.803955 10.075 0.803955C4.55245 0.803955 0.0749512 5.28146 0.0749512 10.804C0.0749512 16.3265 4.55245 20.804 10.075 20.804C15.5975 20.804 20.075 16.3265 20.075 10.804ZM4.76995 12.054C4.56999 12.054 4.37295 12.102 4.19538 12.1939C4.01781 12.2859 3.86489 12.4191 3.74946 12.5823C3.63402 12.7456 3.55944 12.9342 3.53198 13.1323C3.50451 13.3303 3.52496 13.5321 3.59162 13.7206C4.06489 15.0621 4.94262 16.2237 6.1038 17.0454C7.26499 17.867 8.65246 18.3083 10.075 18.3083C11.4974 18.3083 12.8849 17.867 14.0461 17.0454C15.2073 16.2237 16.085 15.0621 16.5583 13.7206C16.6249 13.5321 16.6454 13.3303 16.6179 13.1323C16.5905 12.9342 16.5159 12.7456 16.4004 12.5823C16.285 12.4191 16.1321 12.2859 15.9545 12.1939C15.7769 12.102 15.5799 12.054 15.38 12.054H4.76995ZM4.76995 13.304H15.38C14.9929 14.4018 14.2748 15.3526 13.3246 16.0251C12.3745 16.6976 11.239 17.0588 10.075 17.0588C8.91086 17.0588 7.77544 16.6976 6.82527 16.0251C5.8751 15.3526 5.15698 14.4018 4.76995 13.304ZM13.825 7.99146C13.7421 7.99146 13.6626 7.95853 13.604 7.89993C13.5454 7.84132 13.5125 7.76184 13.5125 7.67896C13.5125 7.59607 13.5454 7.51659 13.604 7.45798C13.6626 7.39938 13.7421 7.36646 13.825 7.36646C13.9078 7.36646 13.9873 7.39938 14.0459 7.45798C14.1045 7.51659 14.1375 7.59607 14.1375 7.67896C14.1375 7.76184 14.1045 7.84132 14.0459 7.89993C13.9873 7.95853 13.9078 7.99146 13.825 7.99146C13.9907 7.99146 14.1497 7.92561 14.2669 7.8084C14.3841 7.69119 14.45 7.53222 14.45 7.36646C14.45 7.20069 14.3841 7.04172 14.2669 6.92451C14.1497 6.8073 13.9907 6.74146 13.825 6.74146C13.7018 6.74146 13.5799 6.7657 13.4662 6.81282C13.3524 6.85993 13.2491 6.92899 13.162 7.01604C13.075 7.1031 13.0059 7.20645 12.9588 7.32019C12.9117 7.43393 12.8875 7.55584 12.8875 7.67896C12.8875 7.80207 12.9117 7.92398 12.9588 8.03772C13.0059 8.15146 13.075 8.25481 13.162 8.34187C13.2491 8.42892 13.3524 8.49798 13.4662 8.54509C13.5799 8.59221 13.7018 8.61646 13.825 8.61646C14.0736 8.61646 14.312 8.51768 14.4879 8.34187C14.6637 8.16605 14.7625 7.9276 14.7625 7.67896C14.7625 7.43031 14.6637 7.19186 14.4879 7.01604C14.312 6.84023 14.0736 6.74146 13.825 6.74146C13.6592 6.74146 13.5002 6.8073 13.383 6.92451C13.2658 7.04172 13.2 7.20069 13.2 7.36646C13.2 7.53222 13.2658 7.69119 13.383 7.8084C13.5002 7.92561 13.6592 7.99146 13.825 7.99146ZM6.32495 7.99146C6.24207 7.99146 6.16259 7.95853 6.10398 7.89993C6.04538 7.84132 6.01245 7.76184 6.01245 7.67896C6.01245 7.59607 6.04538 7.51659 6.10398 7.45798C6.16259 7.39938 6.24207 7.36646 6.32495 7.36646C6.40783 7.36646 6.48732 7.39938 6.54592 7.45798C6.60453 7.51659 6.63745 7.59607 6.63745 7.67896C6.63745 7.76184 6.60453 7.84132 6.54592 7.89993C6.48732 7.95853 6.40783 7.99146 6.32495 7.99146C6.49071 7.99146 6.64968 7.92561 6.76689 7.8084C6.8841 7.69119 6.94995 7.53222 6.94995 7.36646C6.94995 7.20069 6.8841 7.04172 6.76689 6.92451C6.64968 6.8073 6.49071 6.74146 6.32495 6.74146C6.20184 6.74146 6.07993 6.7657 5.96619 6.81282C5.85244 6.85993 5.74909 6.92899 5.66204 7.01604C5.57498 7.1031 5.50593 7.20645 5.45881 7.32019C5.4117 7.43393 5.38745 7.55584 5.38745 7.67896C5.38745 7.80207 5.4117 7.92398 5.45881 8.03772C5.50593 8.15146 5.57498 8.25481 5.66204 8.34187C5.74909 8.42892 5.85244 8.49798 5.96619 8.54509C6.07993 8.59221 6.20184 8.61646 6.32495 8.61646C6.57359 8.61646 6.81205 8.51768 6.98786 8.34187C7.16368 8.16605 7.26245 7.9276 7.26245 7.67896C7.26245 7.43031 7.16368 7.19186 6.98786 7.01604C6.81205 6.84023 6.57359 6.74146 6.32495 6.74146C6.15919 6.74146 6.00022 6.8073 5.88301 6.92451C5.7658 7.04172 5.69995 7.20069 5.69995 7.36646C5.69995 7.53222 5.7658 7.69119 5.88301 7.8084C6.00022 7.92561 6.15919 7.99146 6.32495 7.99146Z" fill="#008234"/>
</svg>
