<svg width="294" height="38" viewBox="0 0 294 38" fill="none" xmlns="http://www.w3.org/2000/svg">
<path d="M2.60662 12.3804C2.60662 11.8453 2.17289 11.4115 1.63786 11.4115C1.10283 11.4115 0.669098 11.8453 0.669098 12.3804V25.945C0.669098 26.4801 1.10283 26.9139 1.63786 26.9139C2.17289 26.9139 2.60662 26.4801 2.60662 25.945V12.3804Z" fill="white"/>
<path d="M6.4813 2.69132C6.4813 2.15621 6.04757 1.72242 5.51254 1.72242C4.97751 1.72242 4.54378 2.15621 4.54378 2.69132V35.6338C4.54378 36.1689 4.97751 36.6027 5.51254 36.6027C6.04757 36.6027 6.4813 36.1689 6.4813 35.6338V2.69132Z" fill="white"/>
<path d="M10.356 6.56705C10.356 6.03194 9.92226 5.59815 9.38723 5.59815C8.8522 5.59815 8.41847 6.03194 8.41847 6.56705V31.7584C8.41847 32.2935 8.8522 32.7273 9.38723 32.7273C9.92226 32.7273 10.356 32.2935 10.356 31.7584V6.56705Z" fill="white"/>
<path d="M14.2327 17.2244C14.2327 16.6893 13.7989 16.2555 13.2639 16.2555C12.7289 16.2555 12.2952 16.6893 12.2952 17.2244V21.1C12.2952 21.6351 12.7289 22.0689 13.2639 22.0689C13.7989 22.0689 14.2327 21.6351 14.2327 21.1V17.2244Z" fill="white"/>
<path d="M18.1074 2.69132C18.1074 2.15621 17.6736 1.72242 17.1386 1.72242C16.6036 1.72242 16.1698 2.15621 16.1698 2.69132V35.6338C16.1698 36.1689 16.6036 36.6027 17.1386 36.6027C17.6736 36.6027 18.1074 36.1689 18.1074 35.6338V2.69132Z" fill="white"/>
<path d="M21.982 8.50467C21.982 7.96956 21.5483 7.53577 21.0133 7.53577C20.4783 7.53577 20.0445 7.96956 20.0445 8.50467V29.8204C20.0445 30.3555 20.4783 30.7893 21.0133 30.7893C21.5483 30.7893 21.982 30.3555 21.982 29.8204V8.50467Z" fill="white"/>
<path d="M25.8567 12.3804C25.8567 11.8453 25.423 11.4115 24.888 11.4115C24.3529 11.4115 23.9192 11.8453 23.9192 12.3804V25.945C23.9192 26.4801 24.3529 26.9139 24.888 26.9139C25.423 26.9139 25.8567 26.4801 25.8567 25.945V12.3804Z" fill="white"/>
<path d="M29.7314 17.2244C29.7314 16.6893 29.2977 16.2555 28.7627 16.2555C28.2276 16.2555 27.7939 16.6893 27.7939 17.2244V21.1C27.7939 21.6351 28.2276 22.0689 28.7627 22.0689C29.2977 22.0689 29.7314 21.6351 29.7314 21.1V17.2244Z" fill="white"/>
<path d="M33.6061 6.56705C33.6061 6.03194 33.1724 5.59815 32.6373 5.59815C32.1023 5.59815 31.6686 6.03194 31.6686 6.56705V31.7584C31.6686 32.2935 32.1023 32.7273 32.6373 32.7273C33.1724 32.7273 33.6061 32.2935 33.6061 31.7584V6.56705Z" fill="white"/>
<path d="M37.4808 8.50467C37.4808 7.96956 37.0471 7.53577 36.512 7.53577C35.977 7.53577 35.5433 7.96956 35.5433 8.50467V29.8204C35.5433 30.3555 35.977 30.7893 36.512 30.7893C37.0471 30.7893 37.4808 30.3555 37.4808 29.8204V8.50467Z" fill="white"/>
<path d="M41.3575 2.69132C41.3575 2.15621 40.9237 1.72242 40.3887 1.72242C39.8537 1.72242 39.42 2.15621 39.42 2.69132V35.6338C39.42 36.1689 39.8537 36.6027 40.3887 36.6027C40.9237 36.6027 41.3575 36.1689 41.3575 35.6338V2.69132Z" fill="white"/>
<path d="M45.2321 14.318C45.2321 13.7829 44.7984 13.3491 44.2634 13.3491C43.7283 13.3491 43.2946 13.7829 43.2946 14.318V24.007C43.2946 24.5421 43.7283 24.9759 44.2634 24.9759C44.7984 24.9759 45.2321 24.5421 45.2321 24.007V14.318Z" fill="white"/>
<path d="M49.1068 7.53586C49.1068 7.00075 48.6731 6.56696 48.1381 6.56696C47.603 6.56696 47.1693 7.00075 47.1693 7.53586V30.7894C47.1693 31.3245 47.603 31.7583 48.1381 31.7583C48.6731 31.7583 49.1068 31.3245 49.1068 30.7894V7.53586Z" fill="white"/>
<path d="M52.9815 2.69132C52.9815 2.15621 52.5478 1.72242 52.0128 1.72242C51.4777 1.72242 51.044 2.15621 51.044 2.69132V35.6338C51.044 36.1689 51.4777 36.6027 52.0128 36.6027C52.5478 36.6027 52.9815 36.1689 52.9815 35.6338V2.69132Z" fill="white"/>
<path d="M56.8562 7.53586C56.8562 7.00075 56.4225 6.56696 55.8875 6.56696C55.3524 6.56696 54.9187 7.00075 54.9187 7.53586V30.7894C54.9187 31.3245 55.3524 31.7583 55.8875 31.7583C56.4225 31.7583 56.8562 31.3245 56.8562 30.7894V7.53586Z" fill="white"/>
<path d="M60.7309 3.66013C60.7309 3.12502 60.2972 2.69123 59.7621 2.69123C59.2271 2.69123 58.7934 3.12502 58.7934 3.66013V34.6648C58.7934 35.1999 59.2271 35.6337 59.7621 35.6337C60.2972 35.6337 60.7309 35.1999 60.7309 34.6648V3.66013Z" fill="white"/>
<path d="M64.6076 17.2244C64.6076 16.6893 64.1738 16.2555 63.6388 16.2555C63.1038 16.2555 62.67 16.6893 62.67 17.2244V21.1C62.67 21.6351 63.1038 22.0689 63.6388 22.0689C64.1738 22.0689 64.6076 21.6351 64.6076 21.1V17.2244Z" fill="white"/>
<path d="M68.4823 12.3804C68.4823 11.8453 68.0485 11.4115 67.5135 11.4115C66.9785 11.4115 66.5447 11.8453 66.5447 12.3804V25.945C66.5447 26.4801 66.9785 26.9139 67.5135 26.9139C68.0485 26.9139 68.4823 26.4801 68.4823 25.945V12.3804Z" fill="white"/>
<path d="M72.357 8.50467C72.357 7.96956 71.9232 7.53577 71.3882 7.53577C70.8532 7.53577 70.4194 7.96956 70.4194 8.50467V29.8204C70.4194 30.3555 70.8532 30.7893 71.3882 30.7893C71.9232 30.7893 72.357 30.3555 72.357 29.8204V8.50467Z" fill="white"/>
<path d="M76.2316 7.0512C76.2316 6.5161 75.7979 6.08231 75.2629 6.08231C74.7279 6.08231 74.2941 6.5161 74.2941 7.0512V31.2736C74.2941 31.8087 74.7279 32.2425 75.2629 32.2425C75.7979 32.2425 76.2316 31.8087 76.2316 31.2736V7.0512Z" fill="white"/>
<path d="M80.1063 3.66013C80.1063 3.12502 79.6726 2.69123 79.1376 2.69123C78.6025 2.69123 78.1688 3.12502 78.1688 3.66013V34.6648C78.1688 35.1999 78.6025 35.6337 79.1376 35.6337C79.6726 35.6337 80.1063 35.1999 80.1063 34.6648V3.66013Z" fill="white"/>
<path d="M83.981 7.53586C83.981 7.00075 83.5473 6.56696 83.0122 6.56696C82.4772 6.56696 82.0435 7.00075 82.0435 7.53586V30.7894C82.0435 31.3245 82.4772 31.7583 83.0122 31.7583C83.5473 31.7583 83.981 31.3245 83.981 30.7894V7.53586Z" fill="white"/>
<path d="M87.8557 10.4423C87.8557 9.90717 87.4219 9.47338 86.8869 9.47338C86.3519 9.47338 85.9182 9.90717 85.9182 10.4423V27.8824C85.9182 28.4175 86.3519 28.8513 86.8869 28.8513C87.4219 28.8513 87.8557 28.4175 87.8557 27.8824V10.4423Z" fill="white"/>
<path d="M91.7324 13.8334C91.7324 13.2983 91.2987 12.8645 90.7636 12.8645C90.2286 12.8645 89.7949 13.2983 89.7949 13.8334V24.4912C89.7949 25.0263 90.2286 25.4601 90.7636 25.4601C91.2987 25.4601 91.7324 25.0263 91.7324 24.4912V13.8334Z" fill="white"/>
<path d="M95.6071 12.3804C95.6071 11.8453 95.1733 11.4115 94.6383 11.4115C94.1033 11.4115 93.6696 11.8453 93.6696 12.3804V25.945C93.6696 26.4801 94.1033 26.9139 94.6383 26.9139C95.1733 26.9139 95.6071 26.4801 95.6071 25.945V12.3804Z" fill="white"/>
<path d="M99.4817 2.69132C99.4817 2.15621 99.048 1.72242 98.513 1.72242C97.9779 1.72242 97.5442 2.15621 97.5442 2.69132V35.6338C97.5442 36.1689 97.9779 36.6027 98.513 36.6027C99.048 36.6027 99.4817 36.1689 99.4817 35.6338V2.69132Z" fill="white"/>
<path d="M103.356 6.56705C103.356 6.03194 102.923 5.59815 102.388 5.59815C101.853 5.59815 101.419 6.03194 101.419 6.56705V31.7584C101.419 32.2935 101.853 32.7273 102.388 32.7273C102.923 32.7273 103.356 32.2935 103.356 31.7584V6.56705Z" fill="white"/>
<path d="M107.231 17.2244C107.231 16.6893 106.797 16.2555 106.262 16.2555C105.727 16.2555 105.294 16.6893 105.294 17.2244V21.1C105.294 21.6351 105.727 22.0689 106.262 22.0689C106.797 22.0689 107.231 21.6351 107.231 21.1V17.2244Z" fill="white"/>
<path d="M111.106 6.56705C111.106 6.03194 110.672 5.59815 110.137 5.59815C109.602 5.59815 109.168 6.03194 109.168 6.56705V31.7584C109.168 32.2935 109.602 32.7273 110.137 32.7273C110.672 32.7273 111.106 32.2935 111.106 31.7584V6.56705Z" fill="white"/>
<path d="M114.982 8.50467C114.982 7.96956 114.549 7.53577 114.014 7.53577C113.479 7.53577 113.045 7.96956 113.045 8.50467V29.8204C113.045 30.3555 113.479 30.7893 114.014 30.7893C114.549 30.7893 114.982 30.3555 114.982 29.8204V8.50467Z" fill="white"/>
<path d="M118.857 2.69132C118.857 2.15621 118.423 1.72242 117.888 1.72242C117.353 1.72242 116.92 2.15621 116.92 2.69132V35.6338C116.92 36.1689 117.353 36.6027 117.888 36.6027C118.423 36.6027 118.857 36.1689 118.857 35.6338V2.69132Z" fill="white"/>
<path d="M122.732 14.318C122.732 13.7829 122.298 13.3491 121.763 13.3491C121.228 13.3491 120.794 13.7829 120.794 14.318V24.007C120.794 24.5421 121.228 24.9759 121.763 24.9759C122.298 24.9759 122.732 24.5421 122.732 24.007V14.318Z" fill="white"/>
<path d="M126.607 7.53586C126.607 7.00075 126.173 6.56696 125.638 6.56696C125.103 6.56696 124.669 7.00075 124.669 7.53586V30.7894C124.669 31.3245 125.103 31.7583 125.638 31.7583C126.173 31.7583 126.607 31.3245 126.607 30.7894V7.53586Z" fill="white"/>
<path d="M130.481 2.69132C130.481 2.15621 130.047 1.72242 129.512 1.72242C128.977 1.72242 128.544 2.15621 128.544 2.69132V35.6338C128.544 36.1689 128.977 36.6027 129.512 36.6027C130.047 36.6027 130.481 36.1689 130.481 35.6338V2.69132Z" fill="white"/>
<path d="M134.356 7.53586C134.356 7.00075 133.922 6.56696 133.387 6.56696C132.852 6.56696 132.418 7.00075 132.418 7.53586V30.7894C132.418 31.3245 132.852 31.7583 133.387 31.7583C133.922 31.7583 134.356 31.3245 134.356 30.7894V7.53586Z" fill="white"/>
<path d="M138.233 3.66013C138.233 3.12502 137.799 2.69123 137.264 2.69123C136.729 2.69123 136.295 3.12502 136.295 3.66013V34.6648C136.295 35.1999 136.729 35.6337 137.264 35.6337C137.799 35.6337 138.233 35.1999 138.233 34.6648V3.66013Z" fill="white"/>
<path d="M142.107 17.2244C142.107 16.6893 141.674 16.2555 141.138 16.2555C140.603 16.2555 140.17 16.6893 140.17 17.2244V21.1C140.17 21.6351 140.603 22.0689 141.138 22.0689C141.674 22.0689 142.107 21.6351 142.107 21.1V17.2244Z" fill="white"/>
<path d="M145.982 12.3804C145.982 11.8453 145.548 11.4115 145.013 11.4115C144.478 11.4115 144.044 11.8453 144.044 12.3804V25.945C144.044 26.4801 144.478 26.9139 145.013 26.9139C145.548 26.9139 145.982 26.4801 145.982 25.945V12.3804Z" fill="white"/>
<path d="M149.857 8.50467C149.857 7.96956 149.423 7.53577 148.888 7.53577C148.353 7.53577 147.919 7.96956 147.919 8.50467V29.8204C147.919 30.3555 148.353 30.7893 148.888 30.7893C149.423 30.7893 149.857 30.3555 149.857 29.8204V8.50467Z" fill="white"/>
<path d="M153.731 7.0512C153.731 6.5161 153.298 6.08231 152.763 6.08231C152.228 6.08231 151.794 6.5161 151.794 7.0512V31.2736C151.794 31.8087 152.228 32.2425 152.763 32.2425C153.298 32.2425 153.731 31.8087 153.731 31.2736V7.0512Z" fill="white"/>
<path d="M157.606 3.66013C157.606 3.12502 157.172 2.69123 156.637 2.69123C156.102 2.69123 155.669 3.12502 155.669 3.66013V34.6648C155.669 35.1999 156.102 35.6337 156.637 35.6337C157.172 35.6337 157.606 35.1999 157.606 34.6648V3.66013Z" fill="white"/>
<path d="M161.481 7.53586C161.481 7.00075 161.047 6.56696 160.512 6.56696C159.977 6.56696 159.543 7.00075 159.543 7.53586V30.7894C159.543 31.3245 159.977 31.7583 160.512 31.7583C161.047 31.7583 161.481 31.3245 161.481 30.7894V7.53586Z" fill="white"/>
<path d="M165.357 10.4423C165.357 9.90717 164.924 9.47338 164.389 9.47338C163.854 9.47338 163.42 9.90717 163.42 10.4423V27.8824C163.42 28.4175 163.854 28.8513 164.389 28.8513C164.924 28.8513 165.357 28.4175 165.357 27.8824V10.4423Z" fill="white"/>
<path d="M169.232 13.8334C169.232 13.2983 168.798 12.8645 168.263 12.8645C167.728 12.8645 167.295 13.2983 167.295 13.8334V24.4912C167.295 25.0263 167.728 25.4601 168.263 25.4601C168.798 25.4601 169.232 25.0263 169.232 24.4912V13.8334Z" fill="white"/>
<path d="M173.107 12.3804C173.107 11.8453 172.673 11.4115 172.138 11.4115C171.603 11.4115 171.169 11.8453 171.169 12.3804V25.945C171.169 26.4801 171.603 26.9139 172.138 26.9139C172.673 26.9139 173.107 26.4801 173.107 25.945V12.3804Z" fill="white"/>
<path d="M176.981 2.69132C176.981 2.15621 176.548 1.72242 176.013 1.72242C175.478 1.72242 175.044 2.15621 175.044 2.69132V35.6338C175.044 36.1689 175.478 36.6027 176.013 36.6027C176.548 36.6027 176.981 36.1689 176.981 35.6338V2.69132Z" fill="white"/>
<path d="M180.856 6.56705C180.856 6.03194 180.422 5.59815 179.887 5.59815C179.352 5.59815 178.919 6.03194 178.919 6.56705V31.7584C178.919 32.2935 179.352 32.7273 179.887 32.7273C180.422 32.7273 180.856 32.2935 180.856 31.7584V6.56705Z" fill="white"/>
<path d="M184.731 14.318C184.731 13.7829 184.297 13.3491 183.762 13.3491C183.227 13.3491 182.793 13.7829 182.793 14.318V24.007C182.793 24.5421 183.227 24.9759 183.762 24.9759C184.297 24.9759 184.731 24.5421 184.731 24.007V14.318Z" fill="white"/>
<path d="M188.608 7.53586C188.608 7.00075 188.174 6.56696 187.639 6.56696C187.104 6.56696 186.67 7.00075 186.67 7.53586V30.7894C186.67 31.3245 187.104 31.7583 187.639 31.7583C188.174 31.7583 188.608 31.3245 188.608 30.7894V7.53586Z" fill="white"/>
<path d="M192.482 2.69132C192.482 2.15621 192.048 1.72242 191.513 1.72242C190.978 1.72242 190.545 2.15621 190.545 2.69132V35.6338C190.545 36.1689 190.978 36.6027 191.513 36.6027C192.048 36.6027 192.482 36.1689 192.482 35.6338V2.69132Z" fill="white"/>
<path d="M196.357 7.53586C196.357 7.00075 195.923 6.56696 195.388 6.56696C194.853 6.56696 194.419 7.00075 194.419 7.53586V30.7894C194.419 31.3245 194.853 31.7583 195.388 31.7583C195.923 31.7583 196.357 31.3245 196.357 30.7894V7.53586Z" fill="white"/>
<path d="M200.232 3.66013C200.232 3.12502 199.798 2.69123 199.263 2.69123C198.728 2.69123 198.294 3.12502 198.294 3.66013V34.6648C198.294 35.1999 198.728 35.6337 199.263 35.6337C199.798 35.6337 200.232 35.1999 200.232 34.6648V3.66013Z" fill="white"/>
<path d="M204.106 17.2244C204.106 16.6893 203.672 16.2555 203.137 16.2555C202.602 16.2555 202.169 16.6893 202.169 17.2244V21.1C202.169 21.6351 202.602 22.0689 203.137 22.0689C203.672 22.0689 204.106 21.6351 204.106 21.1V17.2244Z" fill="white"/>
<path d="M207.981 6.56705C207.981 6.03194 207.547 5.59815 207.012 5.59815C206.477 5.59815 206.043 6.03194 206.043 6.56705V31.7584C206.043 32.2935 206.477 32.7273 207.012 32.7273C207.547 32.7273 207.981 32.2935 207.981 31.7584V6.56705Z" fill="white"/>
<path d="M211.858 8.50467C211.858 7.96956 211.424 7.53577 210.889 7.53577C210.354 7.53577 209.92 7.96956 209.92 8.50467V29.8204C209.92 30.3555 210.354 30.7893 210.889 30.7893C211.424 30.7893 211.858 30.3555 211.858 29.8204V8.50467Z" fill="white"/>
<path d="M215.732 2.69132C215.732 2.15621 215.299 1.72242 214.764 1.72242C214.228 1.72242 213.795 2.15621 213.795 2.69132V35.6338C213.795 36.1689 214.228 36.6027 214.764 36.6027C215.299 36.6027 215.732 36.1689 215.732 35.6338V2.69132Z" fill="white"/>
<path d="M219.607 17.2244C219.607 16.6893 219.173 16.2555 218.638 16.2555C218.103 16.2555 217.669 16.6893 217.669 17.2244V21.1C217.669 21.6351 218.103 22.0689 218.638 22.0689C219.173 22.0689 219.607 21.6351 219.607 21.1V17.2244Z" fill="white"/>
<path d="M223.482 12.3804C223.482 11.8453 223.048 11.4115 222.513 11.4115C221.978 11.4115 221.544 11.8453 221.544 12.3804V25.945C221.544 26.4801 221.978 26.9139 222.513 26.9139C223.048 26.9139 223.482 26.4801 223.482 25.945V12.3804Z" fill="white"/>
<path d="M227.356 8.50467C227.356 7.96956 226.923 7.53577 226.388 7.53577C225.853 7.53577 225.419 7.96956 225.419 8.50467V29.8204C225.419 30.3555 225.853 30.7893 226.388 30.7893C226.923 30.7893 227.356 30.3555 227.356 29.8204V8.50467Z" fill="white"/>
<path d="M231.231 7.0512C231.231 6.5161 230.797 6.08231 230.262 6.08231C229.727 6.08231 229.294 6.5161 229.294 7.0512V31.2736C229.294 31.8087 229.727 32.2425 230.262 32.2425C230.797 32.2425 231.231 31.8087 231.231 31.2736V7.0512Z" fill="white"/>
<path d="M235.106 3.66013C235.106 3.12502 234.672 2.69123 234.137 2.69123C233.602 2.69123 233.168 3.12502 233.168 3.66013V34.6648C233.168 35.1999 233.602 35.6337 234.137 35.6337C234.672 35.6337 235.106 35.1999 235.106 34.6648V3.66013Z" fill="white"/>
<path d="M238.982 7.53586C238.982 7.00075 238.549 6.56696 238.014 6.56696C237.479 6.56696 237.045 7.00075 237.045 7.53586V30.7894C237.045 31.3245 237.479 31.7583 238.014 31.7583C238.549 31.7583 238.982 31.3245 238.982 30.7894V7.53586Z" fill="white"/>
<path d="M242.857 10.4423C242.857 9.90717 242.423 9.47338 241.888 9.47338C241.353 9.47338 240.92 9.90717 240.92 10.4423V27.8824C240.92 28.4175 241.353 28.8513 241.888 28.8513C242.423 28.8513 242.857 28.4175 242.857 27.8824V10.4423Z" fill="white"/>
<path d="M246.732 13.8334C246.732 13.2983 246.298 12.8645 245.763 12.8645C245.228 12.8645 244.794 13.2983 244.794 13.8334V24.4912C244.794 25.0263 245.228 25.4601 245.763 25.4601C246.298 25.4601 246.732 25.0263 246.732 24.4912V13.8334Z" fill="white"/>
<path d="M250.606 17.2244C250.606 16.6893 250.173 16.2555 249.638 16.2555C249.103 16.2555 248.669 16.6893 248.669 17.2244V21.1C248.669 21.6351 249.103 22.0689 249.638 22.0689C250.173 22.0689 250.606 21.6351 250.606 21.1V17.2244Z" fill="white"/>
<path d="M254.481 6.56705C254.481 6.03194 254.047 5.59815 253.512 5.59815C252.977 5.59815 252.544 6.03194 252.544 6.56705V31.7584C252.544 32.2935 252.977 32.7273 253.512 32.7273C254.047 32.7273 254.481 32.2935 254.481 31.7584V6.56705Z" fill="white"/>
<path d="M258.356 8.50467C258.356 7.96956 257.922 7.53577 257.387 7.53577C256.852 7.53577 256.418 7.96956 256.418 8.50467V29.8204C256.418 30.3555 256.852 30.7893 257.387 30.7893C257.922 30.7893 258.356 30.3555 258.356 29.8204V8.50467Z" fill="white"/>
<path d="M262.233 2.69132C262.233 2.15621 261.799 1.72242 261.264 1.72242C260.729 1.72242 260.295 2.15621 260.295 2.69132V35.6338C260.295 36.1689 260.729 36.6027 261.264 36.6027C261.799 36.6027 262.233 36.1689 262.233 35.6338V2.69132Z" fill="white"/>
<path d="M266.107 12.3804C266.107 11.8453 265.673 11.4115 265.138 11.4115C264.603 11.4115 264.17 11.8453 264.17 12.3804V25.945C264.17 26.4801 264.603 26.9139 265.138 26.9139C265.673 26.9139 266.107 26.4801 266.107 25.945V12.3804Z" fill="white"/>
<path d="M269.982 2.69132C269.982 2.15621 269.548 1.72242 269.013 1.72242C268.478 1.72242 268.044 2.15621 268.044 2.69132V35.6338C268.044 36.1689 268.478 36.6027 269.013 36.6027C269.548 36.6027 269.982 36.1689 269.982 35.6338V2.69132Z" fill="white"/>
<path d="M273.857 6.56705C273.857 6.03194 273.423 5.59815 272.888 5.59815C272.353 5.59815 271.919 6.03194 271.919 6.56705V31.7584C271.919 32.2935 272.353 32.7273 272.888 32.7273C273.423 32.7273 273.857 32.2935 273.857 31.7584V6.56705Z" fill="white"/>
<path d="M277.731 14.318C277.731 13.7829 277.298 13.3491 276.763 13.3491C276.227 13.3491 275.794 13.7829 275.794 14.318V24.007C275.794 24.5421 276.227 24.9759 276.763 24.9759C277.298 24.9759 277.731 24.5421 277.731 24.007V14.318Z" fill="white"/>
<path d="M281.606 7.53586C281.606 7.00075 281.172 6.56696 280.637 6.56696C280.102 6.56696 279.668 7.00075 279.668 7.53586V30.7894C279.668 31.3245 280.102 31.7583 280.637 31.7583C281.172 31.7583 281.606 31.3245 281.606 30.7894V7.53586Z" fill="white"/>
<path d="M285.481 2.69132C285.481 2.15621 285.047 1.72242 284.512 1.72242C283.977 1.72242 283.543 2.15621 283.543 2.69132V35.6338C283.543 36.1689 283.977 36.6027 284.512 36.6027C285.047 36.6027 285.481 36.1689 285.481 35.6338V2.69132Z" fill="white"/>
<path d="M289.357 7.53586C289.357 7.00075 288.924 6.56696 288.389 6.56696C287.854 6.56696 287.42 7.00075 287.42 7.53586V30.7894C287.42 31.3245 287.854 31.7583 288.389 31.7583C288.924 31.7583 289.357 31.3245 289.357 30.7894V7.53586Z" fill="white"/>
<path d="M293.232 15.2868C293.232 14.7517 292.798 14.3179 292.263 14.3179C291.728 14.3179 291.294 14.7517 291.294 15.2868V23.038C291.294 23.5731 291.728 24.0069 292.263 24.0069C292.798 24.0069 293.232 23.5731 293.232 23.038V15.2868Z" fill="white"/>
</svg>
