<svg width="26" height="26" viewBox="0 0 26 26" fill="none" xmlns="http://www.w3.org/2000/svg">
<path d="M14.4081 2.51071C14.2345 2.15047 13.87 1.92477 13.4706 1.92477C13.0713 1.92477 12.7068 2.15047 12.5331 2.51071L9.55572 8.64352L2.90641 9.62877C2.51579 9.68519 2.19027 9.95863 2.06874 10.3362C1.94721 10.7138 2.04704 11.1218 2.32481 11.3996L7.14686 16.1782L6.00971 22.9274C5.94461 23.318 6.1052 23.713 6.43072 23.9473C6.75624 24.1817 7.18159 24.2078 7.52881 24.0211L13.475 20.844L19.4212 24.0211C19.7727 24.2078 20.1981 24.1817 20.5193 23.9473C20.8404 23.713 21.0054 23.318 20.9403 22.9274L19.7944 16.1782L24.6208 11.3953C24.9029 11.1175 24.9984 10.7052 24.8769 10.3319C24.7554 9.95863 24.4298 9.68519 24.0392 9.62443L17.3856 8.64352L14.4081 2.51071ZM13.475 18.6218V5.35793L15.7536 10.0498C15.9055 10.3579 16.1963 10.5749 16.5392 10.627L21.6738 11.3866L17.9455 15.0758C17.7068 15.3145 17.5939 15.6531 17.6503 15.9873L18.5271 21.1782L13.9611 18.7433C13.8092 18.6609 13.6399 18.6218 13.475 18.6218Z" fill="#FACC15"/>
</svg>
