<svg width="24" height="23" viewBox="0 0 24 23" fill="none" xmlns="http://www.w3.org/2000/svg">
<path d="M22.9058 7.83904L15.9633 6.83006L12.8597 0.538258C12.775 0.365992 12.6355 0.226539 12.4633 0.141773C12.0312 -0.0715078 11.5062 0.106227 11.2902 0.538258L8.18669 6.83006L1.24411 7.83904C1.05271 7.86638 0.877706 7.95662 0.743722 8.09334C0.581742 8.25982 0.492484 8.48381 0.49556 8.71607C0.498637 8.94833 0.593796 9.16987 0.760128 9.33201L5.78317 14.2293L4.59646 21.1445C4.56863 21.3054 4.58643 21.4708 4.64784 21.6221C4.70925 21.7733 4.81182 21.9044 4.94391 22.0003C5.076 22.0962 5.23233 22.1532 5.39517 22.1649C5.55801 22.1765 5.72084 22.1422 5.86521 22.066L12.075 18.8011L18.2847 22.066C18.4543 22.1562 18.6511 22.1863 18.8398 22.1535C19.3156 22.0715 19.6355 21.6203 19.5535 21.1445L18.3668 14.2293L23.3898 9.33201C23.5265 9.19802 23.6168 9.02302 23.6441 8.83162C23.7179 8.3531 23.3843 7.91013 22.9058 7.83904Z" fill="#FACC15"/>
</svg>
