<svg width="358" height="358" viewBox="0 0 358 358" fill="none" xmlns="http://www.w3.org/2000/svg">
<path d="M70.8532 100.687C87.3297 100.687 100.687 87.3305 100.687 70.854C100.687 54.3775 87.3297 41.0206 70.8532 41.0206C54.3767 41.0206 41.0199 54.3775 41.0199 70.854C41.0199 87.3305 54.3767 100.687 70.8532 100.687Z" stroke="#3D3D3F" stroke-width="7.45833" stroke-linecap="round" stroke-linejoin="round"/>
<path d="M70.8532 316.979C87.3297 316.979 100.687 303.622 100.687 287.146C100.687 270.669 87.3297 257.312 70.8532 257.312C54.3767 257.312 41.0199 270.669 41.0199 287.146C41.0199 303.622 54.3767 316.979 70.8532 316.979Z" stroke="#3D3D3F" stroke-width="7.45833" stroke-linecap="round" stroke-linejoin="round"/>
<path d="M70.8532 208.834C87.3297 208.834 100.687 195.477 100.687 179C100.687 162.524 87.3297 149.167 70.8532 149.167C54.3767 149.167 41.0199 162.524 41.0199 179C41.0199 195.477 54.3767 208.834 70.8532 208.834Z" stroke="#3D3D3F" stroke-width="7.45833" stroke-linecap="round" stroke-linejoin="round"/>
<path d="M70.8546 100.688V149.167M70.8546 208.834V257.313M137.98 70.8544H316.98M137.98 179H316.98M137.98 290.495H316.98M58.444 74.9416L63.993 80.4906L83.2653 61.2183M58.444 291.233L63.993 296.782L83.2653 277.51M58.444 183.087L63.993 188.636L83.2653 169.364" stroke="#3D3D3F" stroke-width="7.45833" stroke-linecap="round" stroke-linejoin="round"/>
</svg>
